@startuml
class DataEngineer {
  - Infrastructure and Architecture Design
  - Data Collection and Storage
  - Optimization and Maintenance
  --
  + SQL, NoSQL
  + Python, Java, Scala
  + Hadoop, Spark, Kafka
  + Cloud Services (AWS, Azure, GCP)
}

class DataScientist {
  - Advanced Data Analysis and Modeling
  - Predictive Modeling
  - Data Mining
  --
  + Python, R
  + Machine Learning Algorithms
  + Big Data Technologies
  + Statistical Analysis Tools
}

class DataAnalyst {
  - Data Processing and Reporting
  - Data Exploration
  - Business Insights and Visualization
  --
  + SQL
  + Excel
  + Basic Python or R
  + Data Visualization (Tableau, PowerBI)
}

class BusinessAnalyst {
  - Requirement Analysis
  - Business Process Improvement
  - Stakeholder Engagement
  - Solution Design and Analysis
  - Change Management and Implementation
  --
  + SQL
  + Microsoft Office Suite
  + Basic Understanding of Data Tools
  + Project Management Software
}

class BusinessConsultant {
  - Identifying Business Problems
  - Strategy Development
  - Client Interaction and Advisory
  - Multi-disciplinary Approach
  --
  + Market Analysis Tools
  + Business Strategy Frameworks
  + Communication Tools
  + Financial Modelling Software
}



' class ProjectLead {
'   - Overall Project Management
'   - Resource Coordination
'   - Stakeholder Communication
'   + Project Management Tools, Leadership Skills
' }

class SoftwareArchitect {
  - High-Level Software Design
  - Technology Selection and Evaluation
  - Guiding Development Practices
  + Design Patterns, Architectural Frameworks, Tech Knowledge
}

class DataArchitect {
  - Data Architecture Design and Implementation
  - Database Design and Data Modeling
  - Data Governance and Quality Standards
  --
  + SQL, NoSQL
  + Data Modeling Tools
  + Cloud Data Services
  + Data Security and Compliance Knowledge
}

class Developer {
  - Software Development
  - Implementing Solutions
  + Programming Languages, Development Tools, Coding Best Practices
}

class DevOps {
  - CI/CD Pipeline Implementation
  - Server and Infrastructure Management
  - Automation of Development Processes
  - System Monitoring and Reliability
  --
  + Docker, Kubernetes
  + Cloud Platforms (AWS, Azure, GCP)
  + Automation Tools (Ansible, Terraform)
  + Scripting (Python, Bash)
}



DataEngineer --> DataScientist : provides data infrastructure
DataScientist --> DataAnalyst : drives analysis needs
DataAnalyst --> BusinessAnalyst : supplies data insights
BusinessAnalyst --> BusinessConsultant : informs strategic decisions

Developer --> DataEngineer : "implements data-related solutions"
' ProjectLead --> SoftwareArchitect : "manages project scope"
' ProjectLead --> Developer : "coordinates development work"
' ProjectLead --> DataEngineer : "aligns data infrastructure with project goals"
' ProjectLead --> DataScientist : "integrates data science into project"
' ProjectLead --> DataAnalyst : "utilizes data analysis for project insights"
' ProjectLead --> BusinessAnalyst : "aligns business requirements with project"
' ProjectLead --> BusinessConsultant : "ensures project meets business needs"


SoftwareArchitect --> DataEngineer : "aligns data infrastructure\nwith system architecture"
SoftwareArchitect --> Developer : "provides design guidance\nand technical standards"
' SoftwareArchitect --> ProjectLead : "advises on technical feasibility\nand architectural decisions"
SoftwareArchitect ..> DataScientist : "ensures compatibility\nof data science solutions"
SoftwareArchitect ..> DataAnalyst : "incorporates data analysis needs\ninto system design"
SoftwareArchitect ..> BusinessAnalyst : "aligns software architecture\nwith business requirements"
SoftwareArchitect ..> BusinessConsultant : "consults on technology\nimpacting business strategy"

DataArchitect --> DataEngineer : "defines architecture\nfor implementation"
DataArchitect ..> DataScientist : "supports data model\nfor analytics"
DataArchitect ..> DataAnalyst : "enables effective data querying\nand reporting"
DataArchitect ..> BusinessAnalyst : "provides data framework\nfor business analysis"
DataArchitect ..> BusinessConsultant : "supports data-driven\nbusiness strategies"
DataArchitect ..> SoftwareArchitect : "collaborates on integrating\ndata into software architecture"
' DataArchitect --> ProjectLead : "aligns data architecture\nwith project objectives"

DevOps --> Developer : "facilitates code integration\nand deployment"
DevOps --> SoftwareArchitect : "collaborates on system architecture\nand tech stack decisions"
DevOps --> DataEngineer : "supports data infrastructure\nautomation and deployment"
DevOps --> DataArchitect : "ensures infrastructure supports\ndata architecture"
' DevOps --> ProjectLead : "implements automation in\nproject delivery"



@enduml
